<svg xmlns="http://www.w3.org/2000/svg" xml:space="preserve" viewBox="0 0 257.04 45.508"><defs><linearGradient id="a" x1="12.843" x2="266.58" y1="61.322" y2="106.83" gradientTransform="matrix(1.013 0 0 1 156.43 45.893)" gradientUnits="userSpaceOnUse"><stop offset="0" stop-color="#4B5665"/><stop offset="1" stop-color="#1C1D1F"/></linearGradient></defs><g transform="translate(-169.44 -107.22)"><rect width="257.04" height="45.508" x="169.44" y="107.22" fill="url(#a)" ry="22.754"/><g fill="#FFD60D"><path d="m267.74 115.548-4.931.7943v24.887h4.931v-13.238c.3089-.0883.6512-.1659 1.0263-.232.3971-.0883.816-.1324 1.2573-.1324 1.1032 0 1.8534.3314 2.2505.9933.4192.6619.6289 1.787.6289 3.3755v9.2335h4.931v-9.8294c0-1.1914-.1211-2.2724-.3638-3.2432-.2206-.9708-.618-1.8091-1.1917-2.5151-.5516-.706-1.3018-1.2465-2.2505-1.6216-.9267-.3972-2.0958-.5959-3.5078-.5959-.4854 0-.9929.055-1.5224.1654-.5075.0882-.9269.1879-1.2578.2982zm109.87 2.2174c-1.6768 0-3.2318.2647-4.6659.7943-1.4341.5295-2.6698 1.3128-3.7068 2.3497-1.037 1.0149-1.8532 2.2726-2.4489 3.7729-.5957 1.4782-.894 3.1658-.894 5.0633 0 3.8169.971 6.7622 2.9125 8.8362 1.9636 2.0739 4.8098 3.1109 8.5385 3.1109 1.743 0 3.2764-.1762 4.6002-.5292 1.3238-.353 2.3498-.7504 3.0778-1.1916l-1.4232-4.1367c-.2868.1324-.6066.2755-.9596.43s-.7614.298-1.2247.4304c-.4634.1103-.9929.2094-1.5885.2977-.5957.0883-1.2683.1323-2.0185.1323-1.1914 0-2.2064-.1872-3.0448-.5623-.8384-.3971-1.5226-.9266-2.0521-1.5885-.5075-.6619-.8823-1.445-1.125-2.3497-.2207-.9266-.3313-1.9196-.3313-2.9786 0-1.3238.1767-2.4489.5297-3.3755.353-.9266.8165-1.6769 1.3901-2.2505.5957-.5957 1.2683-1.026 2.0185-1.2909.7722-.2647 1.5554-.3969 2.3497-.3969 1.1914 0 2.2504.1322 3.1771.397.9487.2647 1.7765.5845 2.4825.9595l1.4893-4.1698c-.1765-.1103-.4638-.265-.861-.4635-.397-.1986-.893-.3857-1.4887-.5622-.5957-.1986-1.291-.3643-2.0851-.4966-.7943-.1545-1.6771-.2316-2.648-.2316zm-192.15.5292c-.2206 1.5224-.4298 3.2325-.6284 5.1299a316.3103 316.3103 0 0 0-.4966 5.8906 8777.3485 8777.3485 0 0 0-.3969 6.1226 1167.2217 1167.2217 0 0 0-.2981 5.7919h5.0307c.0661-2.2284.1542-4.6557.2645-7.2812s.276-5.273.4966-7.9427c.3972.9266.838 1.9526 1.3234 3.0778s.9599 2.2503 1.4232 3.3755a719.0187 719.0187 0 0 1 1.3901 3.2437 326.0614 326.0614 0 0 1 1.125 2.6143h3.6075c.309-.7281.6838-1.5994 1.125-2.6143.4413-1.037.8937-2.1185 1.357-3.2437l1.4562-3.3755c.4854-1.1252.9268-2.1512 1.324-3.0778a196.647 196.647 0 0 1 .4961 7.9427c.1103 2.6255.199 5.0528.2651 7.2812h5.0302a370.8359 370.8359 0 0 0-.3307-5.792 276.0385 276.0385 0 0 0-.3974-6.1225c-.1324-2.052-.298-4.0152-.4966-5.8906-.1765-1.8974-.3747-3.6076-.5953-5.13h-4.6995c-.3972.7281-.8606 1.633-1.3901 2.714-.5075 1.059-1.048 2.2172-1.6216 3.4748a217.3168 217.3168 0 0 0-1.6547 3.806 7152.1819 7152.1819 0 0 0-1.5555 3.6737 6895.1273 6895.1273 0 0 0-1.5555-3.6737 122.8925 122.8925 0 0 0-1.6878-3.806c-.5516-1.2576-1.0921-2.4157-1.6216-3.4747-.5075-1.0811-.9599-1.986-1.357-2.714zm202.94 0v22.935h15.323v-4.435h-10.16v-18.5zm18.699 0v22.935h5.163v-22.935zm-170.24.3974-4.931.7942v14.628c0 1.1252.099 2.1512.2977 3.0778.2206.9267.596 1.721 1.1255 2.3828.5295.6399 1.2352 1.1473 2.1177 1.5224.8825.353 1.997.5292 3.3429.5292 1.059 0 1.9524-.0881 2.6805-.2646.728-.1765 1.3897-.3862 1.9854-.6289l-.6946-3.839c-.4633.1765-.9818.3202-1.5555.4305-.5515.0883-1.092.1323-1.6216.1323-1.1032 0-1.8424-.3088-2.2174-.9266-.353-.6178-.5296-1.445-.5296-2.482v-6.1226h5.9241v-4.104h-5.9241zm-16.878 4.6664c-.5736 0-1.1477.033-1.7213.0992-.5516.0441-1.0811.1102-1.5885.1984-.5075.0662-.982.1548-1.4232.2651-.4192.0883-.772.1764-1.0588.2646l.6289 3.9713c.5957-.2206 1.3019-.3863 2.1182-.4966a15.4797 15.4797 0 0 1 2.482-.1984c1.2576 0 2.1399.2537 2.6474.7611.5074.5075.7612 1.1806.7612 2.019v.463c-.3089-.0882-.7168-.1542-1.2242-.1984-.4854-.0662-1.0484-.0992-1.6883-.0992-.9487 0-1.8641.099-2.7466.2977-.8825.1765-1.6658.4742-2.3497.8935-.684.4192-1.2355.9822-1.6547 1.6883-.3972.706-.5958 1.5663-.5958 2.5812 0 1.059.1766 1.9524.5296 2.6805.353.728.8605 1.3242 1.5224 1.7875.662.4412 1.4451.761 2.3497.9596.9267.1985 1.9526.2976 3.0778.2976 1.7871 0 3.309-.11 4.5666-.3307 1.2576-.1986 2.2395-.3752 2.9456-.5297v-10.259c0-1.081-.121-2.063-.3638-2.9456s-.662-1.6327-1.2578-2.2505c-.5736-.6177-1.3459-1.0922-2.3167-1.4232-.9707-.331-2.1839-.496-3.64-.496zm34.352 0c-1.412 0-2.6697.2427-3.7729.728-1.1032.4855-2.0405 1.147-2.8128 1.9855-.7722.8163-1.3678 1.7873-1.787 2.9125-.3971 1.1032-.5958 2.2838-.5958 3.5414 0 1.3017.1651 2.5149.496 3.64.353 1.1033.8936 2.0632 1.6217 2.8795.7501.8163 1.699 1.4669 2.8463 1.9523 1.1473.4633 2.515.695 4.1036.695 1.037 0 1.9859-.088 2.8463-.2645.8604-.1766 1.5776-.3863 2.1513-.629l-.695-4.0374c-.5737.2427-1.2029.4193-1.8868.5296s-1.3236.1654-1.9193.1654c-1.6768 0-2.8574-.4304-3.5414-1.291-.6619-.8604-.9927-2.0735-.9927-3.64 0-1.4782.3534-2.67 1.0594-3.5745.728-.9046 1.8201-1.357 3.2763-1.357.684 0 1.3015.0666 1.8531.199.5516.1323 1.0591.2865 1.5224.463l1.0258-3.9383a11.5416 11.5416 0 0 0-2.25-.695c-.7722-.1766-1.622-.2647-2.5487-.2647zm-33.491 10.359c.331 0 .6948.022 1.0919.0662.3971.044.695.088.8935.1322v3.7399c-.2648.044-.6176.0772-1.0588.0992a27.8354 27.8354 0 0 1-1.3901.033c-.9046 0-1.6218-.143-2.1513-.4299-.5075-.3089-.7612-.8494-.7612-1.6216 0-.3971.0886-.7284.265-.9932.1766-.2648.4193-.474.7282-.6284.3089-.1544.6617-.254 1.0588-.2982.4192-.0662.8606-.0992 1.324-.0992z"/><path fill="#E5E4E0" d="M314.6 117.302c-.4413 0-.8161.1546-1.125.4635-.3089.2869-.4635.6837-.4635 1.1911s.1546.9159.4635 1.2247c.3089.2869.6837.43 1.125.43s.8166-.1431 1.1255-.43c.3089-.3088.463-.7172.463-1.2247s-.1541-.9043-.463-1.191c-.3089-.309-.6843-.4636-1.1255-.4636zm-25.251 6.4203c-.9487 0-1.8756.1877-2.7802.5628-.8825.353-1.6768.9045-2.3828 1.6547-.684.7501-1.2465 1.688-1.6878 2.8133-.4192 1.1032-.6289 2.4049-.6289 3.9052 0 1.3017.1547 2.5039.4635 3.607.309 1.081.8054 2.019 1.4893 2.8133s1.5553 1.4118 2.6143 1.853c1.059.4413 2.3388.662 3.839.662 1.1473 0 2.1402-.121 2.9786-.3638.8605-.2427 1.445-.4524 1.754-.6289l-.397-1.853c-.3088.1544-.8053.3415-1.4892.5622s-1.6108.3312-2.7802.3312c-2.1181 0-3.6625-.5625-4.6333-1.6878-.9708-1.1252-1.4893-2.7363-1.5555-4.8323h12.014a3.5045 3.5045 0 0 0 .033-.496 4.2606 4.2606 0 0 0 .0332-.5297c0-2.8462-.6292-4.9531-1.8867-6.3211-1.2355-1.368-2.9011-2.0522-4.9971-2.0522zm17.573.0661c-1.39 0-2.5701.1327-3.5409.3974-.9708.2427-1.732.4855-2.2836.7282v16.316h2.1513v-14.992c.1765-.0883.5403-.199 1.0919-.3313.5736-.1324 1.3239-.1984 2.2505-.1984.8825 0 1.5887.055 2.1182.1653.5516.0883.9154.1764 1.0919.2646l.4305-1.853c-.2427-.1104-.6841-.2205-1.324-.3308-.6178-.1103-1.28-.1659-1.986-.1659zm21.081 0c-1.5665 0-2.8902.1107-3.9713.3313-1.0811.2206-1.9414.4193-2.5812.5958v16.514h2.1513v-15.025c.2206-.0882.6946-.1873 1.4226-.2976.7501-.1104 1.633-.1654 2.6479-.1654.9487 0 1.732.1211 2.3497.3638.6398.2206 1.1473.596 1.5224 1.1255.3971.5295.6729 1.2132.8273 2.0516.1765.8384.2646 1.8644.2646 3.0778v8.8697h2.1513v-9.5648c0-1.1693-.1106-2.2394-.3312-3.2101-.2207-.9708-.5955-1.7981-1.125-2.482-.5075-.706-1.2026-1.2465-2.0852-1.6216-.8605-.375-1.9415-.5628-3.2432-.5628zm19.427 0c-1.2576 0-2.3937.2208-3.4086.662-.9928.4192-1.8427 1.0153-2.5487 1.7875-.684.7502-1.2135 1.6435-1.5885 2.6805s-.5622 2.162-.5622 3.3755c0 1.5003.2091 2.78.6283 3.839.4192 1.037.9713 1.8863 1.6552 2.5482.706.662 1.5223 1.1474 2.449 1.4562.9267.309 1.886.4636 2.879.4636.6177 0 1.1692-.044 1.6546-.1323.5075-.1103.949-.243 1.324-.3974.3972-.1545.728-.2976.9927-.43.2648-.1544.4635-.287.5959-.3974v1.1255c0 1.8974-.4635 3.2322-1.3901 4.0044-.9046.7943-2.3715 1.1912-4.4013 1.1912-.9267 0-1.8535-.088-2.7802-.2646-.9046-.1765-1.6218-.3862-2.1513-.6289l-.43 1.9528c.6399.2207 1.401.4078 2.2836.5623.9046.1765 1.9085.265 3.0117.265 2.6696 0 4.666-.5514 5.9898-1.6546 1.3238-1.0811 1.986-2.9013 1.986-5.4606v-15.621c-.6178-.1986-1.412-.3973-2.3829-.5958-.9487-.2207-2.2174-.3313-3.806-.3313zm-33.889.3313v17.11h2.1513v-17.11zm-24.159 1.5224c1.4562 0 2.5812.4965 3.3755 1.4893s1.2137 2.3827 1.2578 4.1698h-9.7963c.0441-.7502.1878-1.4673.4305-2.1513.2647-.684.6176-1.2795 1.0588-1.787.4633-.5295.9928-.949 1.5885-1.2578.6177-.3089 1.3129-.463 2.085-.463zm58.081.0992c1.1032 0 1.9525.055 2.5482.1654.5957.0882 1.0812.1873 1.4562.2976v11.021c-.4413.3751-1.0699.706-1.8862.9927-.7943.2869-1.6771.43-2.6479.43-.6619 0-1.3125-.1101-1.9523-.3307-.6398-.2427-1.2134-.6176-1.7208-1.125-.4854-.5075-.8828-1.1586-1.1917-1.9528-.3089-.8164-.463-1.7873-.463-2.9125 0-.9708.1321-1.8531.3969-2.6474.2647-.8164.651-1.5115 1.1586-2.0851.5074-.5958 1.114-1.0476 1.82-1.3565.728-.331 1.5554-.4967 2.482-.4967z"/></g></g></svg>